<svg xmlns="http://www.w3.org/2000/svg" width="145.028" height="38.627" viewBox="0 0 145.028 38.627">
  <path id="scuk-pos-compact" d="M206.888,146.068l-.7-.243c-.94-.317-1.532-.576-1.532-1.429,0-.743.592-1.122,1.759-1.122a6.49,6.49,0,0,1,2.222.379,4.063,4.063,0,0,0,.151-.894,6.613,6.613,0,0,0-2.4-.4c-1.713,0-2.744.713-2.744,2.063,0,1.214.743,1.9,2.092,2.3l.7.213c.727.227,1.562.546,1.562,1.456,0,.864-.713,1.229-1.881,1.229a5.3,5.3,0,0,1-2.471-.592,3.064,3.064,0,0,0-.151.925,5.232,5.232,0,0,0,2.652.59c1.821,0,2.881-.8,2.881-2.183C209.011,147.054,208.088,146.478,206.888,146.068Zm-8.43-3.7a11.3,11.3,0,0,0-2.857.425v7.586h1.062v-6.859a7.953,7.953,0,0,1,1.759-.213c1.865,0,2.4.729,2.4,2.138v4.933h1.062v-5.13c.006-1.835-.859-2.881-3.421-2.881Zm12.572-8.489h2.464v-7.522c0-2.71-1.321-4.3-5.441-4.3a20.632,20.632,0,0,0-4.478.635v11.2h2.464v-9.54a12.443,12.443,0,0,1,1.948-.179c2.462,0,3.044.851,3.044,2.621Zm4.652,14.9a3.06,3.06,0,0,1-2.152.863c-1.365,0-2-.667-2-2.243v-4.852h-1.059v5.064c0,2.017.971,2.941,2.73,2.941a3.351,3.351,0,0,0,2.516-.864l.03.683h1v-7.824h-1.062Zm6.275-14.994a20.828,20.828,0,0,0,.291-2.081,5.572,5.572,0,0,1-1.925.335c-1.186,0-1.9-.559-1.9-2.014v-5.486h3.673a19.475,19.475,0,0,0,.225-2.1h-3.9v-4.237a8.519,8.519,0,0,0-2.462.359v11.754c0,2.732,1.522,3.829,3.918,3.829A5.57,5.57,0,0,0,221.957,133.789Zm44.8.359a8.485,8.485,0,0,0,3.627-.716c.159-.74.29-1.587.379-2.24a9.582,9.582,0,0,1-3.94.851c-2.194,0-3.359-.962-3.671-2.956h7.857a12.984,12.984,0,0,0,.135-1.9c0-2.821-1.522-5.127-5.038-5.127-3.918,0-5.462,2.643-5.462,5.978C260.648,131.863,262.64,134.147,266.76,134.147Zm-.784-10.03c1.7,0,2.686,1.075,2.686,2.911h-5.556C263.311,125.125,264.23,124.117,265.976,124.117Zm-98.71-1.768a5.156,5.156,0,0,0-.687-2.362l-3.729-6.464a5.2,5.2,0,0,1-.59-1.564l-.159.27a5.171,5.171,0,0,0,0,5.171l2.986,5.171a5.171,5.171,0,0,1,0,5.171l-.159.271a5.088,5.088,0,0,0-.59-1.563l-2.733-4.735-1.746-3.016a5.2,5.2,0,0,1-.59-1.564l-.159.27a5.173,5.173,0,0,0-.01,5.156h0l3,5.187a5.172,5.172,0,0,1,0,5.171l-.159.271a5.1,5.1,0,0,0-.59-1.564l-3.732-6.465a5.178,5.178,0,0,1-.687-2.81c-3.987,1.04-6.746,3.262-6.746,5.821,0,3.57,5.337,6.464,11.921,6.464s11.919-2.894,11.919-6.464C174.02,125.617,171.263,123.4,167.266,122.349ZM183.042,132a10.449,10.449,0,0,1-4.1-.873,7.516,7.516,0,0,0-.425,2.27,10.794,10.794,0,0,0,4.591.851c3.81,0,5.752-1.77,5.752-4.344,0-2.171-1.186-3.448-4.029-4.657l-1.21-.514c-1.567-.671-2.441-1.343-2.441-2.508s.9-1.948,2.844-1.948a11.362,11.362,0,0,1,3.671.649,8.571,8.571,0,0,0,.448-2.24,12.281,12.281,0,0,0-4.1-.649c-3.627,0-5.4,1.635-5.4,4.187,0,2.373,1.429,3.56,3.537,4.478l1.143.492c2.1.919,2.954,1.524,2.954,2.822S185.125,132,183.042,132Zm.5,8.687a6.032,6.032,0,0,1,2.076.363,3.908,3.908,0,0,0,.183-1.016,6.382,6.382,0,0,0-2.259-.364c-3.184,0-5.019,2-5.019,5.459,0,3.289,1.746,5.457,4.913,5.457a6.166,6.166,0,0,0,2.108-.317,6.216,6.216,0,0,0,.167-1.122,5.489,5.489,0,0,1-2.138.424c-2.4,0-3.943-1.652-3.943-4.487,0-2.881,1.548-4.4,3.913-4.4Zm6.808,1.683c-2.351,0-3.746,1.578-3.746,4.14,0,2.335,1.229,4.048,3.651,4.048,2.4,0,3.76-1.576,3.76-4.168C194.015,144.082,192.8,142.368,190.347,142.368Zm-.037,7.233c-1.729,0-2.638-1.138-2.638-3.175,0-1.865.864-3.108,2.638-3.108,1.713,0,2.622,1.152,2.622,3.138C192.939,148.373,192.076,149.6,190.31,149.6Zm8.175-17.065.135,1.343h2.26v-11.2a12.543,12.543,0,0,0-4.232-.635c-4.141,0-6.246,2.24-6.246,6.179,0,3.762,1.97,5.911,4.921,5.911a3.422,3.422,0,0,0,3.168-1.6Zm-5.568-4.3c0-2.506,1.186-4.075,3.738-4.075a10.08,10.08,0,0,1,1.77.135v7.035a3.862,3.862,0,0,1-2.4.806C193.834,132.133,192.917,130.52,192.917,128.236Zm67.57,14.127a11.3,11.3,0,0,0-2.857.425v7.591h1.062v-6.859a7.953,7.953,0,0,1,1.759-.213c1.864,0,2.4.729,2.4,2.138v4.933h1.06v-5.13c.006-1.835-.857-2.881-3.419-2.881Zm4.987,4.156c0,2.592,1.335,4.032,3.492,4.032a3.065,3.065,0,0,0,2.063-.773l.032.592h.984v-7.576a6.888,6.888,0,0,0-2.532-.425c-2.721,0-4.04,1.486-4.04,4.156Zm5.5,2.381a2.675,2.675,0,0,1-1.925.773c-1.652,0-2.5-1.2-2.5-3.152,0-2.032.924-3.216,2.956-3.216a5.617,5.617,0,0,1,1.471.183Zm4.762-24.6a12.245,12.245,0,0,1,1.814-.135,15.629,15.629,0,0,1,1.857.09,9.154,9.154,0,0,0,.224-2.1,19.759,19.759,0,0,0-2.149-.09,14.743,14.743,0,0,0-4.21.635v11.2h2.464Zm-17.11-6.091a7.483,7.483,0,0,0-2.44.337v3.694a9.713,9.713,0,0,0-1.837-.179c-4.141,0-6.246,2.24-6.246,6.179,0,3.762,1.97,5.911,4.921,5.911a3.4,3.4,0,0,0,3.2-1.7l.133,1.429h2.262Zm-2.44,13.076a3.956,3.956,0,0,1-2.464.851c-2.194,0-3.113-1.613-3.113-3.9,0-2.552,1.165-4.075,3.6-4.075a9.929,9.929,0,0,1,1.971.224Zm20.76,11.086a11.286,11.286,0,0,0-2.857.425v7.586h1.06v-6.859a7.953,7.953,0,0,1,1.759-.213c1.865,0,2.4.729,2.4,2.138v4.933h1.062v-5.13C280.379,143.414,279.518,142.368,276.952,142.368Zm18.254,3.518c0-1.956-.97-3.518-3.245-3.518-2.487,0-3.5,1.789-3.5,4.049,0,2.608,1.335,4.138,3.867,4.138a4.614,4.614,0,0,0,2.411-.576,9.893,9.893,0,0,0,.159-1.016,5.128,5.128,0,0,1-2.54.652c-1.729,0-2.683-.97-2.819-2.789h5.61a6.327,6.327,0,0,0,.062-.941Zm-1.062-.014h-4.6c.121-1.578.863-2.578,2.381-2.578s2.222,1.016,2.222,2.517Zm-8.262-2.564a4.2,4.2,0,0,1,1.683.349,6.1,6.1,0,0,0,.121-.924,4.4,4.4,0,0,0-1.8-.365c-2.7,0-4,1.638-4,4.127,0,2.608,1.47,4.064,3.7,4.064a3.386,3.386,0,0,0,1.957-.53c.06-.333.106-.713.137-1.016a3.651,3.651,0,0,1-2,.606c-1.562,0-2.714-.986-2.714-3.154,0-1.989.987-3.157,2.929-3.157Zm-30.838-3.4a.694.694,0,0,0-.713.713.681.681,0,0,0,.713.7.668.668,0,0,0,.7-.7.681.681,0,0,0-.7-.713ZM247.1,150.379h1.062V145.6h4.373c.046-.289.091-.743.106-1.016H248.16V140.9h4.776a7.968,7.968,0,0,0,.121-1.016H247.1Zm7.414,0h1.062v-7.829h-1.062Zm-14.57-7.581v7.581H241v-6.9a7.559,7.559,0,0,1,1.486-.168,9.115,9.115,0,0,1,1.168.062,3.765,3.765,0,0,0,.106-.91,10.463,10.463,0,0,0-1.3-.062,8.7,8.7,0,0,0-2.516.4Zm-6.41-20.114a12.556,12.556,0,0,0-4.232-.635c-4.143,0-6.248,2.24-6.248,6.179,0,3.762,1.971,5.911,4.921,5.911a3.451,3.451,0,0,0,3.156-1.611l.135,1.343h2.268Zm-2.464,8.648a3.86,3.86,0,0,1-2.4.806c-2.2,0-3.113-1.613-3.113-3.9,0-2.506,1.187-4.075,3.74-4.075a10.062,10.062,0,0,1,1.768.135Zm3.968,11.041c-2.487,0-3.5,1.789-3.5,4.049,0,2.608,1.335,4.138,3.867,4.138a4.617,4.617,0,0,0,2.411-.576,9.89,9.89,0,0,0,.159-1.016,5.129,5.129,0,0,1-2.54.652c-1.729,0-2.684-.97-2.821-2.789h5.611a6.55,6.55,0,0,0,.06-.941c-.008-1.96-.978-3.522-3.252-3.522Zm2.183,3.5h-4.6c.122-1.578.865-2.578,2.381-2.578s2.222,1.016,2.222,2.518Zm3.492-23.81a20.606,20.606,0,0,0-4.478.635v11.2H238.7v-9.549a12.439,12.439,0,0,1,1.932-.186c2.464,0,3.046.851,3.046,2.621v7.1h2.462v-7.522c0-2.71-1.319-4.3-5.438-4.3Zm-13.872,20.318a6.224,6.224,0,0,0-2.654.635,3.657,3.657,0,0,0-2.381-.635,11.54,11.54,0,0,0-2.987.425v7.57h1.062v-6.859a8.374,8.374,0,0,1,1.819-.213c1.622,0,2.222.608,2.222,2.078v4.994h1.062v-5.13a3.875,3.875,0,0,0-.259-1.5,5.157,5.157,0,0,1,2.017-.44c1.562,0,2.222.729,2.222,2.108v4.964h1.06v-5.13c0-1.835-.91-2.881-3.2-2.881Z" transform="translate(-150.18 -111.96)" fill="#fff" opacity="0.5"/>
</svg>
