<svg xmlns="http://www.w3.org/2000/svg" xmlns:xlink="http://www.w3.org/1999/xlink" width="54.787" height="33.278" viewBox="0 0 54.787 33.278">
  <defs>
    <clipPath id="clip-path">
      <path id="Path_14848" data-name="Path 14848" d="M0-113.935H51.162v-20.743H0Z" transform="translate(0 134.678)" fill="none"/>
    </clipPath>
  </defs>
  <g id="Group_4450" data-name="Group 4450" transform="matrix(0.966, -0.259, 0.259, 0.966, 34.857, 143.331)">
    <g id="Group_4449" data-name="Group 4449" transform="translate(0 -134.678)" clip-path="url(#clip-path)">
      <g id="Group_4411" data-name="Group 4411" transform="translate(18.122 1.872)">
        <path id="Path_14810" data-name="Path 14810" d="M-64.915-93.419A1.088,1.088,0,0,1-66-94.505v-5.313l-1.585,2.428a1.075,1.075,0,0,1-.909.492,1.088,1.088,0,0,1-.907-.485L-71-99.836v5.312a1.088,1.088,0,0,1-1.086,1.086h-3.559a1.088,1.088,0,0,1-1.088-1.086v-14.817a1.088,1.088,0,0,1,1.086-1.086H-72a1.081,1.081,0,0,1,.915.5c.418.655.852,1.316,1.273,1.955.218.331.434.659.648.988l.673,1.032,2.364-3.62c.02-.031.051-.072.078-.108v-.024l.16-.233a1.091,1.091,0,0,1,.9-.474h3.641a1.088,1.088,0,0,1,1.086,1.086v14.817a1.088,1.088,0,0,1-1.086,1.086Z" transform="translate(76.734 110.427)"/>
      </g>
      <g id="Group_4412" data-name="Group 4412" transform="translate(18.299 2.049)">
        <path id="Path_14811" data-name="Path 14811" d="M-63.941-91.47a.91.91,0,0,1-.909-.909v-5.909l-1.911,2.927a.9.9,0,0,1-.76.412.91.91,0,0,1-.759-.406L-70.2-98.307v5.91a.91.91,0,0,1-.909.909h-3.559a.911.911,0,0,1-.911-.909v-14.817a.91.91,0,0,1,.909-.909h3.643a.9.9,0,0,1,.766.42c.418.655.853,1.317,1.274,1.957.218.331.433.659.648.987l.821,1.26,2.512-3.848c.02-.031.059-.083.107-.143v-.031l.129-.187a.914.914,0,0,1,.752-.4h3.641a.91.91,0,0,1,.909.909v14.817a.91.91,0,0,1-.909.909Z" transform="translate(75.582 108.123)"/>
      </g>
      <g id="Group_4413" data-name="Group 4413" transform="translate(18.299 2.049)">
        <path id="Path_14812" data-name="Path 14812" d="M-63.941-91.47a.91.91,0,0,1-.909-.909v-5.909l-1.911,2.927a.9.9,0,0,1-.76.412.91.91,0,0,1-.759-.406L-70.2-98.307v5.91a.91.91,0,0,1-.909.909h-3.559a.911.911,0,0,1-.911-.909v-14.817a.91.91,0,0,1,.909-.909h3.643a.9.9,0,0,1,.766.42c.418.655.853,1.317,1.274,1.957.218.331.433.659.648.987l.821,1.26,2.512-3.848c.02-.031.059-.083.107-.143v-.031l.129-.187a.914.914,0,0,1,.752-.4h3.641a.91.91,0,0,1,.909.909v14.817a.91.91,0,0,1-.909.909Z" transform="translate(75.582 108.123)"/>
      </g>
      <g id="Group_4414" data-name="Group 4414" transform="translate(18.477 2.226)">
        <path id="Path_14813" data-name="Path 14813" d="M-62.966-89.521a.732.732,0,0,1-.732-.732v-6.505l-2.237,3.426a.725.725,0,0,1-.612.332.733.733,0,0,1-.611-.327l-2.248-3.451v6.507a.732.732,0,0,1-.732.732H-73.7a.733.733,0,0,1-.733-.732v-14.817a.732.732,0,0,1,.732-.732h3.643a.728.728,0,0,1,.616.338c.419.657.856,1.321,1.278,1.963q.323.491.645.983l.97,1.488,2.661-4.076c.018-.028.054-.075.1-.128l.039-.049v-.038l.1-.142a.736.736,0,0,1,.606-.32h3.641a.732.732,0,0,1,.732.732v14.817a.732.732,0,0,1-.732.732Z" transform="translate(74.43 105.82)"/>
      </g>
      <g id="Group_4415" data-name="Group 4415" transform="translate(1.862 1.872)">
        <path id="Path_14814" data-name="Path 14814" d="M-64.915-93.419A1.088,1.088,0,0,1-66-94.505v-5.313l-1.585,2.428a1.075,1.075,0,0,1-.909.492,1.088,1.088,0,0,1-.907-.485L-71-99.836v5.312a1.088,1.088,0,0,1-1.086,1.086h-3.559a1.088,1.088,0,0,1-1.088-1.086v-14.817a1.088,1.088,0,0,1,1.086-1.086H-72a1.081,1.081,0,0,1,.916.5c.413.648.844,1.3,1.26,1.936l.014.022q.323.492.646.984l.673,1.032,2.363-3.62c.017-.026.045-.064.079-.108v-.024l.16-.233a1.091,1.091,0,0,1,.9-.474h3.641a1.088,1.088,0,0,1,1.086,1.086v14.817a1.088,1.088,0,0,1-1.086,1.086Z" transform="translate(76.734 110.427)"/>
      </g>
      <g id="Group_4416" data-name="Group 4416" transform="translate(2.04 2.049)">
        <path id="Path_14815" data-name="Path 14815" d="M-63.941-91.47a.91.91,0,0,1-.909-.909v-5.909l-1.911,2.927a.9.9,0,0,1-.76.412.91.91,0,0,1-.759-.406L-70.2-98.307v5.91a.91.91,0,0,1-.909.909h-3.559a.911.911,0,0,1-.911-.909v-14.817a.91.91,0,0,1,.909-.909h3.643a.9.9,0,0,1,.766.42c.419.657.855,1.319,1.276,1.96q.323.492.645.984l.821,1.26,2.512-3.848c.02-.03.059-.083.107-.143v-.031l.129-.187a.914.914,0,0,1,.752-.4h3.641a.91.91,0,0,1,.909.909v14.817a.91.91,0,0,1-.909.909Z" transform="translate(75.582 108.123)"/>
      </g>
      <g id="Group_4417" data-name="Group 4417" transform="translate(2.04 2.049)">
        <path id="Path_14816" data-name="Path 14816" d="M-63.941-91.47a.91.91,0,0,1-.909-.909v-5.909l-1.911,2.927a.9.9,0,0,1-.76.412.91.91,0,0,1-.759-.406L-70.2-98.307v5.91a.91.91,0,0,1-.909.909h-3.559a.911.911,0,0,1-.911-.909v-14.817a.91.91,0,0,1,.909-.909h3.643a.9.9,0,0,1,.766.42c.419.657.855,1.319,1.276,1.96q.323.492.645.984l.821,1.26,2.512-3.848c.02-.03.059-.083.107-.143v-.031l.129-.187a.914.914,0,0,1,.752-.4h3.641a.91.91,0,0,1,.909.909v14.817a.91.91,0,0,1-.909.909Z" transform="translate(75.582 108.123)"/>
      </g>
      <g id="Group_4418" data-name="Group 4418" transform="translate(2.217 2.226)">
        <path id="Path_14817" data-name="Path 14817" d="M-62.966-89.521a.732.732,0,0,1-.732-.732v-6.505l-2.237,3.426a.725.725,0,0,1-.612.332.733.733,0,0,1-.611-.327l-2.248-3.451v6.507a.732.732,0,0,1-.732.732H-73.7a.733.733,0,0,1-.733-.732v-14.817a.732.732,0,0,1,.732-.732h3.643a.727.727,0,0,1,.617.339c.419.656.855,1.32,1.277,1.962q.323.491.645.983l.97,1.488,2.661-4.076c.018-.028.054-.075.1-.128l.039-.049v-.038l.1-.142a.736.736,0,0,1,.606-.32h3.641a.732.732,0,0,1,.732.732v14.817a.732.732,0,0,1-.732.732Z" transform="translate(74.43 105.82)"/>
      </g>
      <g id="Group_4419" data-name="Group 4419" transform="translate(34.236 1.89)">
        <path id="Path_14818" data-name="Path 14818" d="M-55.67-93.319a1.091,1.091,0,0,1-.935-.533l-1.671-2.818-1.683,2.821a1.091,1.091,0,0,1-.933.53h-3.827a1.089,1.089,0,0,1-.944-.549,1.089,1.089,0,0,1,.01-1.092l4.2-7.07-3.951-6.636a1.089,1.089,0,0,1-.011-1.093,1.089,1.089,0,0,1,.945-.55h3.826a1.092,1.092,0,0,1,.933.529l1.443,2.413,1.443-2.413a1.093,1.093,0,0,1,.933-.529h3.839a1.089,1.089,0,0,1,.945.55,1.089,1.089,0,0,1-.012,1.094l-3.963,6.635L-50.9-94.96a1.089,1.089,0,0,1,.01,1.092,1.089,1.089,0,0,1-.944.549Z" transform="translate(65.806 110.309)"/>
      </g>
      <g id="Group_4420" data-name="Group 4420" transform="translate(34.413 2.068)">
        <path id="Path_14819" data-name="Path 14819" d="M-54.7-91.37a.913.913,0,0,1-.782-.446L-57.3-94.891l-1.835,3.077a.913.913,0,0,1-.781.443h-3.827a.911.911,0,0,1-.79-.459.911.911,0,0,1,.008-.914l4.249-7.161-4-6.726a.911.911,0,0,1-.009-.915.911.911,0,0,1,.79-.46h3.826a.914.914,0,0,1,.78.442l1.6,2.668,1.595-2.668a.914.914,0,0,1,.78-.443h3.839a.911.911,0,0,1,.791.461.911.911,0,0,1-.01.915L-54.322-99.9l4.249,7.16a.911.911,0,0,1,.008.914.911.911,0,0,1-.79.459Z" transform="translate(64.654 108.005)"/>
      </g>
      <g id="Group_4421" data-name="Group 4421" transform="translate(34.413 2.068)">
        <path id="Path_14820" data-name="Path 14820" d="M-54.7-91.37a.913.913,0,0,1-.782-.446L-57.3-94.891l-1.835,3.077a.913.913,0,0,1-.781.443h-3.827a.911.911,0,0,1-.79-.459.911.911,0,0,1,.008-.914l4.249-7.161-4-6.726a.911.911,0,0,1-.009-.915.911.911,0,0,1,.79-.46h3.826a.914.914,0,0,1,.78.442l1.6,2.668,1.595-2.668a.914.914,0,0,1,.78-.443h3.839a.911.911,0,0,1,.791.461.911.911,0,0,1-.01.915L-54.322-99.9l4.249,7.16a.911.911,0,0,1,.008.914.911.911,0,0,1-.79.459Z" transform="translate(64.654 108.005)"/>
      </g>
      <g id="Group_4422" data-name="Group 4422" transform="translate(34.591 2.245)">
        <path id="Path_14821" data-name="Path 14821" d="M-53.722-89.421a.735.735,0,0,1-.629-.359l-1.976-3.331-1.988,3.333a.735.735,0,0,1-.629.357h-3.827a.733.733,0,0,1-.636-.37.733.733,0,0,1,.006-.736l4.3-7.252-4.059-6.817a.734.734,0,0,1-.007-.736.733.733,0,0,1,.636-.37H-58.7a.736.736,0,0,1,.628.356l1.748,2.923,1.747-2.922a.736.736,0,0,1,.628-.356h3.839a.733.733,0,0,1,.637.371.733.733,0,0,1-.008.737l-4.072,6.817,4.3,7.251a.734.734,0,0,1,.007.736.734.734,0,0,1-.636.37Z" transform="translate(63.503 105.701)"/>
      </g>
      <g id="Group_4423" data-name="Group 4423" transform="translate(1.274 1.284)">
        <path id="Path_14822" data-name="Path 14822" d="M-118.513,0h-3.643l3.766,0c-.04,0-.082,0-.123,0m26.8,15.655-4.017-6.768,3.784-6.336A1.677,1.677,0,0,0-91.926.866,1.679,1.679,0,0,0-93.382.018h-3.84a1.684,1.684,0,0,0-1.437.815L-99.6,2.4l-.94-1.569a1.682,1.682,0,0,0-1.437-.815H-111.5a1.675,1.675,0,0,0-1.383.73l-.263.382v.02L-115,3.989l-.182-.277c-.208-.32-.419-.639-.635-.967l-.022-.034c-.416-.633-.847-1.288-1.261-1.938A1.653,1.653,0,0,0-118.27.018h-9.494a1.679,1.679,0,0,0-1.383.73l-.263.382v.02l-1.853,2.839-.182-.277q-.314-.483-.631-.964l-.018-.029c-.419-.638-.853-1.3-1.266-1.945A1.667,1.667,0,0,0-134.773,0h-3.643a1.676,1.676,0,0,0-1.674,1.674V16.491a1.678,1.678,0,0,0,1.676,1.674h3.559a1.677,1.677,0,0,0,1.676-1.674V13.158q.256.4.521.8a1.671,1.671,0,0,0,1.4.747,1.656,1.656,0,0,0,1.4-.759l.505-.773V16.51a1.677,1.677,0,0,0,1.674,1.674h3.563c.656,0,1.311-.018,1.967-.018h3.559a1.676,1.676,0,0,0,1.674-1.674V13.158l.521.8a1.676,1.676,0,0,0,1.4.747,1.656,1.656,0,0,0,1.4-.759l.505-.773V16.51a1.677,1.677,0,0,0,1.674,1.674h9.209a1.682,1.682,0,0,0,1.439-.816l1.177-1.973,1.166,1.967a1.678,1.678,0,0,0,1.442.822h3.84a1.677,1.677,0,0,0,1.454-.846,1.678,1.678,0,0,0-.014-1.683m-.91,1.358a.047.047,0,0,1-.012.012.116.116,0,0,1-.025.023.149.149,0,0,1-.034.029l-.02.017a.28.28,0,0,1-.035.023l0,0s0,0-.006,0l0,0h0l-.014.011-.017.011-.015.008-.022.012a.747.747,0,0,1-.251.072c-.025,0-.049,0-.074,0h-3.84c-.02,0-.04,0-.06,0a.4.4,0,0,1-.045,0,.242.242,0,0,1-.035-.006.756.756,0,0,1-.2-.071.255.255,0,0,1-.039-.023.646.646,0,0,1-.132-.1.7.7,0,0,1-.117-.149L-99.6,13.551l0,0-1.987,3.331a.694.694,0,0,1-.119.149.593.593,0,0,1-.057.049c-.011.009-.022.017-.032.025a.655.655,0,0,1-.1.06c-.014.006-.028.014-.042.018v0c-.028.009-.054.018-.082.026a.022.022,0,0,1-.009,0,.72.72,0,0,1-.1.02l-.018,0h-.011a.167.167,0,0,1-.028,0,.187.187,0,0,1-.029,0h-3.829a.621.621,0,0,1-.075,0h-.011a.02.02,0,0,0-.009,0h0a.577.577,0,0,1-.092-.02h0a.022.022,0,0,1-.011,0l-.025-.008-.011,0a.359.359,0,0,1-.043-.017l-.011,0a.628.628,0,0,1-.1-.054c-.02-.012-.04-.026-.059-.04a0,0,0,0,1,0,0l0,0s0,0,0,0l-.022-.02a.355.355,0,0,1-.035-.032.767.767,0,0,1-.117-.154c-.008-.014-.015-.029-.023-.045s0,0,0,0a.39.39,0,0,1-.02-.045v0l0-.009-.014-.042c0-.009,0-.017-.006-.026a.023.023,0,0,1,0-.014l-.009-.037a.719.719,0,0,1-.012-.12c0-.016,0-.032,0-.047a.732.732,0,0,1,.01-.107s0-.006,0-.011,0-.015.006-.023a.133.133,0,0,1,.009-.035.31.31,0,0,1,.011-.035.459.459,0,0,1,.018-.049c0-.011.009-.022.014-.031l0-.009c.008-.015.015-.029.025-.045l1.2-2.03V10.848l-.722,1.217-.587.989-.179.3-.176.3v2.859c0,.022,0,.043,0,.065a.026.026,0,0,1,0,.011v0a.116.116,0,0,1,0,.031.284.284,0,0,1-.008.039.065.065,0,0,1,0,.017.015.015,0,0,1,0,.011.041.041,0,0,1,0,.018c0,.008,0,.015-.006.023a.135.135,0,0,1-.008.023.163.163,0,0,1-.011.029s0,.006,0,.009,0,0,0,.006a.073.073,0,0,1-.008.015.273.273,0,0,1-.023.048.168.168,0,0,1-.009.017,0,0,0,0,0,0,0c-.006.011-.012.02-.018.029a.416.416,0,0,1-.039.052.19.19,0,0,1-.028.034.306.306,0,0,1-.031.032c-.017.017-.034.032-.051.048l-.015.012,0,0a.638.638,0,0,1-.066.046.633.633,0,0,1-.079.042.667.667,0,0,1-.083.032.29.29,0,0,1-.052.014.055.055,0,0,1-.017,0,0,0,0,0,1,0,0l-.031,0-.008,0c-.017,0-.034,0-.051.006s-.039,0-.057,0h-3.561a.732.732,0,0,1-.732-.732V10l0,0-1.352,2.07-.884,1.352a.725.725,0,0,1-.117.139.1.1,0,0,1-.014.012.191.191,0,0,1-.034.028s0,0,0,0a.143.143,0,0,1-.018.014v0h0a.28.28,0,0,1-.035.023.087.087,0,0,1-.02.012l-.015.009a.094.094,0,0,1-.022.011.47.47,0,0,1-.063.029.6.6,0,0,1-.074.025.239.239,0,0,1-.035.008.277.277,0,0,1-.049.009.12.12,0,0,1-.034,0,.6.6,0,0,1-.075,0,.735.735,0,0,1-.611-.328l-.04-.062c-.014-.022-.029-.046-.046-.071-.065-.1-.145-.223-.237-.362l-.071-.108-.072-.114c-.025-.039-.051-.077-.077-.117v0h0c-.026-.04-.052-.08-.079-.122s-.054-.083-.082-.126h0c-.034-.054-.069-.108-.1-.163-.014-.02-.028-.042-.042-.063s-.014-.022-.022-.034h0c-.028-.045-.057-.088-.085-.132h0a.1.1,0,0,0-.011-.017c-.025-.04-.049-.079-.075-.117h0c-.014-.023-.028-.045-.043-.068s-.028-.045-.043-.068h0c-.025-.04-.049-.079-.075-.117-.012-.02-.026-.042-.04-.062s-.039-.06-.057-.089h0l-.04-.063c-.015-.023-.031-.046-.045-.069h0c-.017-.028-.035-.054-.052-.082a.534.534,0,0,1-.031-.049h0c-.012-.02-.025-.04-.038-.06l-.439-.673c-.008-.014-.017-.026-.026-.04a.268.268,0,0,0-.017-.028h0a.115.115,0,0,0-.011-.018l-.008-.011-.094-.146h0c0-.006-.008-.012-.012-.02a.415.415,0,0,0-.034-.051s0,0,0,0h0a.092.092,0,0,0-.014-.023c-.025-.037-.046-.071-.065-.1V16.49c0,.022,0,.043,0,.065a.026.026,0,0,1,0,.011v0a.115.115,0,0,1,0,.031.284.284,0,0,1-.008.039.065.065,0,0,1,0,.017.015.015,0,0,1,0,.011.041.041,0,0,1,0,.018c0,.008,0,.015-.006.023a.137.137,0,0,1-.008.023.164.164,0,0,1-.011.029s0,.006,0,.009,0,0,0,.006a.072.072,0,0,1-.008.015.274.274,0,0,1-.023.048.168.168,0,0,1-.009.017,0,0,0,0,0,0,0c-.006.011-.012.02-.018.029a.414.414,0,0,1-.039.052.19.19,0,0,1-.028.034.307.307,0,0,1-.031.032c-.017.017-.034.032-.051.048l-.015.012,0,0a.64.64,0,0,1-.066.046.633.633,0,0,1-.079.042.666.666,0,0,1-.083.032.291.291,0,0,1-.052.014.055.055,0,0,1-.017,0,0,0,0,0,1,0,0l-.031,0-.008,0c-.017,0-.034,0-.051.006s-.039,0-.057,0h-3.559a.734.734,0,0,1-.519-.214c-.011-.011-.02-.022-.029-.032a.269.269,0,0,1-.028-.034.766.766,0,0,1-.051-.072.631.631,0,0,1-.042-.079c-.009-.02-.018-.043-.026-.065a.086.086,0,0,0-.006-.018.291.291,0,0,1-.014-.052.055.055,0,0,1,0-.017l0-.018a.077.077,0,0,1,0-.018c0-.016,0-.034,0-.051s0,0,0-.006c0-.018,0-.035,0-.054V1.673a.729.729,0,0,1,.214-.516c.022-.02.043-.04.066-.059a.637.637,0,0,1,.066-.046.271.271,0,0,1,.035-.022l.014-.006.034-.017q.042-.018.083-.032l.023-.006a.041.041,0,0,1,.018,0,.015.015,0,0,1,.011,0,.066.066,0,0,1,.017,0,.283.283,0,0,1,.039-.008.115.115,0,0,1,.031,0h0a.026.026,0,0,1,.011,0c.022,0,.043,0,.065,0h3.643a.621.621,0,0,1,.092.006.513.513,0,0,1,.085.015.921.921,0,0,1,.092.029c.026.011.052.023.075.035a.526.526,0,0,1,.1.066.154.154,0,0,1,.04.032.053.053,0,0,1,.014.012.026.026,0,0,1,.009.009.623.623,0,0,1,.054.057.677.677,0,0,1,.055.075c.419.656.856,1.32,1.278,1.962q.323.492.644.984l.97,1.486,2.661-4.074a.034.034,0,0,0,0-.008l0-.008.006-.009h0a.032.032,0,0,1,.006-.009l.015-.022c.017-.022.037-.046.057-.074l.018-.022.022-.028V1.422l.1-.142a.338.338,0,0,1,.022-.028.026.026,0,0,1,.011-.012.036.036,0,0,1,.012-.015.177.177,0,0,1,.022-.026.7.7,0,0,1,.18-.143l0,0,.006,0,.006,0h0a.052.052,0,0,1,.018-.009s0,0,0,0l.037-.017a.009.009,0,0,0,.006,0,.065.065,0,0,1,.022-.009l.018-.006a.065.065,0,0,1,.023-.006.283.283,0,0,1,.071-.018.08.08,0,0,1,.032-.006s0,0,.006,0a.007.007,0,0,1,.008,0h0a0,0,0,0,1,0,0A.567.567,0,0,1-111.5.96h3.641c.022,0,.043,0,.065,0a.02.02,0,0,1,.009,0,.152.152,0,0,1,.026,0,.657.657,0,0,1,.109.023l.006,0a.055.055,0,0,1,.017,0,.055.055,0,0,1,.017.006.131.131,0,0,1,.034.014.078.078,0,0,1,.02.008l.018.009a.127.127,0,0,1,.025.014.048.048,0,0,1,.015.008.635.635,0,0,1,.1.071.376.376,0,0,1,.052.048.049.049,0,0,1,.011.009.441.441,0,0,1,.035.04,0,0,0,0,1,0,0v0h0a.655.655,0,0,1,.077.116v0h0c.011.02.02.04.029.062v0h0a.478.478,0,0,1,.023.066v0a.312.312,0,0,1,.014.051.077.077,0,0,1,0,.018.26.26,0,0,1,.009.048.055.055,0,0,1,0,.017v.008a.6.6,0,0,1,0,.074V4.135l.176.294.179.3.587.986.722,1.214V3.678l-.96-1.611a.735.735,0,0,1-.008-.736.767.767,0,0,1,.117-.154l.034-.031.023-.022s0,0,0,0l0,0a0,0,0,0,1,0,0,.56.56,0,0,1,.08-.054l.025-.014a.58.58,0,0,1,.054-.026l.011,0a.63.63,0,0,1,.091-.031.578.578,0,0,1,.092-.02h0a.02.02,0,0,0,.009,0l.026,0c.02,0,.04,0,.06,0h3.831c.018,0,.037,0,.055,0a.7.7,0,0,1,.217.051l.011,0,.006,0,.025.011a0,0,0,0,1,0,0,.471.471,0,0,1,.055.031.235.235,0,0,1,.046.029c.011.008.022.015.032.025s0,0,0,0a.3.3,0,0,1,.054.046.689.689,0,0,1,.065.069.544.544,0,0,1,.054.079l1.748,2.922,1.747-2.922a.686.686,0,0,1,.119-.148.488.488,0,0,1,.052-.046s0,0,0,0,.022-.017.032-.025a.04.04,0,0,1,.017-.011.015.015,0,0,1,.008-.006l0,0A.025.025,0,0,1-97.6,1.07l.02-.014.025-.012.017-.009h0A.393.393,0,0,1-97.465,1a.683.683,0,0,1,.185-.04c.02,0,.039,0,.059,0h3.84c.02,0,.038,0,.059,0a.717.717,0,0,1,.242.062c.015.006.029.014.045.022a.706.706,0,0,1,.08.051.093.093,0,0,1,.022.015s0,0,0,0a.041.041,0,0,1,.009.008.473.473,0,0,1,.059.052.721.721,0,0,1,.119.154.728.728,0,0,1,.094.385.141.141,0,0,1,0,.026s0,0,0,0a.006.006,0,0,0,0,0v0c0,.01,0,.02,0,.03a.013.013,0,0,0,0,0v0c0,.008,0,.016,0,.024l0,.025a0,0,0,0,1,0,0,.055.055,0,0,1,0,.017.012.012,0,0,1,0,.008.029.029,0,0,1,0,.012s0,.006,0,.009a0,0,0,0,1,0,0l0,.018-.009.028a.669.669,0,0,1-.039.091.412.412,0,0,1-.025.045l-4.071,6.815,4.3,7.251a.732.732,0,0,1,.006.736.644.644,0,0,1-.106.142m-30.823-.228s0,0,0,.008a1.032,1.032,0,0,1-.062.116l-.006.009a.812.812,0,0,1-.2.2.858.858,0,0,1-.123.066l-.045.017a.136.136,0,0,0-.023.008l-.017.006-.052.012h0l-.06.009h0a.753.753,0,0,1-.083,0h-3.561a.73.73,0,0,1-.518-.214.73.73,0,0,1-.214-.518V10l-2.236,3.425a.725.725,0,0,1-.611.333h0a.5.5,0,0,1-.083-.006h-.006a.694.694,0,0,1-.082-.015s0,0-.006,0a.772.772,0,0,1-.085-.026.738.738,0,0,1-.142-.075.156.156,0,0,1-.032-.023s0,0-.006,0a.24.24,0,0,1-.031-.025.125.125,0,0,1-.015-.014.724.724,0,0,1-.119-.137c-.006-.011-.014-.022-.022-.032s-.009-.014-.014-.022-.023-.034-.035-.054-.011-.015-.015-.025h0a.116.116,0,0,0-.011-.018l-.1-.148c-.1-.152-.217-.334-.35-.536l-.162-.248c-.137-.213-.285-.437-.431-.662l-.174-.268-.336-.514c-.045-.069-.089-.139-.132-.2l-.162-.248-.063-.1a.2.2,0,0,1-.015-.023c-.035-.054-.069-.1-.1-.152-.052-.079-.1-.146-.129-.2V16.5a.675.675,0,0,1,0,.079v0a.294.294,0,0,1-.009.051.2.2,0,0,1-.006.029.291.291,0,0,1-.014.052c-.006.02-.014.04-.022.059,0,0,0,0,0,.008a1.037,1.037,0,0,1-.062.116l-.006.009a.811.811,0,0,1-.2.2.859.859,0,0,1-.123.066l-.045.017a.135.135,0,0,0-.023.008l-.017.006-.052.012h0l-.06.009h0a.752.752,0,0,1-.083,0h-3.559a.228.228,0,0,1-.032,0h0a.762.762,0,0,1-.1-.009.7.7,0,0,1-.123-.035c-.02-.007-.039-.016-.059-.026a.648.648,0,0,1-.1-.052h0v0l-.035-.027a.58.58,0,0,1-.056-.046.74.74,0,0,1-.055-.061c-.008-.009-.016-.017-.023-.027s-.016-.022-.024-.033a.677.677,0,0,1-.053-.087c0-.006-.006-.014-.009-.022l-.009-.02s0-.011-.008-.015-.012-.035-.017-.052,0,0,0-.006c-.006-.02-.011-.042-.015-.062a.693.693,0,0,1-.015-.149V1.673a.729.729,0,0,1,.026-.194.219.219,0,0,1,.014-.042.728.728,0,0,1,.051-.117l.022-.035a.636.636,0,0,1,.111-.136.222.222,0,0,1,.028-.026.522.522,0,0,1,.065-.051.087.087,0,0,1,.02-.012.032.032,0,0,1,.009-.006.2.2,0,0,1,.023-.015.049.049,0,0,1,.015-.008c.012-.008.026-.014.038-.02A.057.057,0,0,1-138.707,1h0l0,0,.008,0,.029-.012a.081.081,0,0,1,.018,0,.022.022,0,0,1,.009,0,.021.021,0,0,1,.012,0,.076.076,0,0,1,.02-.006.491.491,0,0,1,.092-.018.119.119,0,0,1,.023,0,.019.019,0,0,1,.009,0c.022,0,.045,0,.066,0h3.643a.72.72,0,0,1,.183.023v0l.043.012a.442.442,0,0,1,.085.034.243.243,0,0,1,.04.02s0,0,0,0a.636.636,0,0,1,.145.106.027.027,0,0,1,.012.011.6.6,0,0,1,.052.055.855.855,0,0,1,.055.075c.1.165.209.328.316.493s.214.33.32.494l.641.975q.323.492.645.984l.969,1.488,2.661-4.075c.018-.029.054-.075.1-.129.011-.012.025-.031.038-.049V1.422l.1-.142c.008-.011.014-.02.023-.031s.012-.017.018-.025,0,0,0,0l.011-.011a.152.152,0,0,1,.015-.017.175.175,0,0,1,.025-.023s0-.008.008-.008a.145.145,0,0,1,.015-.015.224.224,0,0,1,.029-.025.172.172,0,0,1,.034-.025s0,0,.006,0v0l0,0,0,0a.531.531,0,0,1,.063-.039l0,0a.006.006,0,0,1,0,0v0a.528.528,0,0,1,.08-.035.694.694,0,0,1,.074-.025h0l.008,0a.022.022,0,0,1,.009,0,.011.011,0,0,1,.008,0,.569.569,0,0,1,.071-.012.568.568,0,0,1,.089-.006h3.641c.022,0,.043,0,.065,0a.02.02,0,0,1,.009,0,.152.152,0,0,1,.026,0,.657.657,0,0,1,.109.023l.008,0,.034.011a.146.146,0,0,1,.032.014l.015,0,.025.012a.154.154,0,0,1,.022.012.008.008,0,0,1,.006,0,.025.025,0,0,1,.011.006.6.6,0,0,1,.1.071.377.377,0,0,1,.052.048.026.026,0,0,1,.009.009.234.234,0,0,1,.018.02.036.036,0,0,1,.012.014.06.06,0,0,1,.012.015.067.067,0,0,1,.009.011.1.1,0,0,1,.015.02.128.128,0,0,1,.012.018h0s0,0,0,.006a.312.312,0,0,1,.032.054v0h0a.136.136,0,0,1,.012.026.177.177,0,0,1,.015.029.017.017,0,0,0,0,.008h0a.432.432,0,0,1,.017.048c0,.006,0,.012.006.02h0c.006.022.012.046.017.069a.666.666,0,0,1,.015.146V16.514a.671.671,0,0,1,0,.079v0a.294.294,0,0,1-.009.051.2.2,0,0,1-.006.029.292.292,0,0,1-.014.052c-.006.02-.014.04-.022.059" transform="translate(140.09 0)" fill="#fff"/>
      </g>
      <g id="Group_4424" data-name="Group 4424" transform="translate(0 0)">
        <path id="Path_14823" data-name="Path 14823" d="M-278.75-89.461l-3.629-6.115,3.395-5.683a2.962,2.962,0,0,0,.032-2.97,2.956,2.956,0,0,0-2.566-1.492h-3.838a2.961,2.961,0,0,0-2.375,1.2,2.968,2.968,0,0,0-2.377-1.2c-1.121,0-2.241-.052-3.362-.012-2.055.072-4.112.011-6.169.011a2.951,2.951,0,0,0-2.424,1.269.027.027,0,0,1-.006.008s0,0,0,0l-.49.71v.038l-.581.889c-.342-.521-.688-1.05-1.021-1.573-.014-.023-.029-.045-.046-.068a.023.023,0,0,0-.008-.011,2.931,2.931,0,0,0-2.432-1.285c-3.06,0-6.172.018-9.25.018a2.953,2.953,0,0,0-2.432,1.28l-.49.71v.038l-.581.889c-.34-.519-.687-1.049-1.018-1.569a2.94,2.94,0,0,0-2.489-1.366h-3.643a2.954,2.954,0,0,0-2.95,2.95v14.817a2.954,2.954,0,0,0,2.951,2.95h3.559a2.953,2.953,0,0,0,2.95-2.95v-.581a2.962,2.962,0,0,0,.642.071,2.955,2.955,0,0,0,.63-.068v.6a2.953,2.953,0,0,0,2.949,2.949c3.03,0,6.058-.018,9.089-.018a2.953,2.953,0,0,0,2.95-2.95v-.581a2.959,2.959,0,0,0,.641.071,2.958,2.958,0,0,0,.631-.068v.6a2.953,2.953,0,0,0,2.95,2.949l9.209,0a2.966,2.966,0,0,0,2.534-1.439l.077-.131.074.123A2.961,2.961,0,0,0-285.128-85h3.841a2.957,2.957,0,0,0,2.563-1.491,2.957,2.957,0,0,0-.026-2.965m-27.9-15c.042,0,.083,0,.123,0l-3.766,0Zm26.815,17.338a1.677,1.677,0,0,1-1.454.846h-3.84a1.678,1.678,0,0,1-1.442-.822l-1.166-1.967-1.177,1.973a1.683,1.683,0,0,1-1.439.816h-9.209a1.677,1.677,0,0,1-1.674-1.674v-3.338l-.505.773a1.656,1.656,0,0,1-1.4.759,1.676,1.676,0,0,1-1.4-.747l-.521-.8v3.333a1.676,1.676,0,0,1-1.674,1.674h-3.559c-.656,0-1.311.018-1.967.018h-3.563a1.677,1.677,0,0,1-1.674-1.674v-3.338l-.505.773a1.656,1.656,0,0,1-1.4.759,1.671,1.671,0,0,1-1.4-.747q-.263-.4-.521-.8v3.333a1.677,1.677,0,0,1-1.676,1.674h-3.559a1.678,1.678,0,0,1-1.676-1.674V-102.79a1.676,1.676,0,0,1,1.674-1.674h3.643a1.667,1.667,0,0,1,1.412.773c.413.65.847,1.308,1.266,1.945l.018.029q.317.481.632.964l.182.277,1.853-2.839v-.02l.263-.382a1.679,1.679,0,0,1,1.383-.73h9.494a1.653,1.653,0,0,1,1.167.755c.414.65.846,1.3,1.261,1.938l.022.034c.216.328.427.647.635.967l.182.277,1.853-2.839v-.02l.263-.382a1.675,1.675,0,0,1,1.383-.73h9.531a1.682,1.682,0,0,1,1.437.815l.94,1.569.938-1.569a1.684,1.684,0,0,1,1.437-.815h3.84a1.679,1.679,0,0,1,1.455.847,1.677,1.677,0,0,1-.018,1.685l-3.784,6.336,4.017,6.768a1.678,1.678,0,0,1,.014,1.683" transform="translate(329.5 105.748)" fill="#fff"/>
      </g>
      <g id="Group_4425" data-name="Group 4425" transform="translate(16.259 2.244)">
        <path id="Path_14824" data-name="Path 14824" d="M-9.416-4.018V10.8a.732.732,0,0,1-.732.732h-.886a2.855,2.855,0,0,1-.091-.554c0-.065-.006-.129-.006-.2V-4.037c0-.054,0-.106,0-.159a2.973,2.973,0,0,1,.085-.554h.895a.733.733,0,0,1,.732.732" transform="translate(11.13 4.75)" fill="#fff"/>
      </g>
      <g id="Group_4426" data-name="Group 4426" transform="translate(18.477 2.226)">
        <path id="Path_14825" data-name="Path 14825" d="M-98.726-4.12V10.7c0,.06,0,.12,0,.179a2.975,2.975,0,0,1-.088.554h-1.037a.734.734,0,0,1-.636-.37.735.735,0,0,1,.006-.736l1.2-2.03V5.037l-1.663,2.8V10.7a.732.732,0,0,1-.732.732h-3.561a.732.732,0,0,1-.732-.732v-6.5l-2.238,3.425a.725.725,0,0,1-.611.333.735.735,0,0,1-.611-.328c-.393-.6-1.888-2.9-2.247-3.45v6.506a.732.732,0,0,1-.732.732h-3.559a.733.733,0,0,1-.733-.732V-4.138a.733.733,0,0,1,.732-.732h3.643a.727.727,0,0,1,.616.339c.419.656.856,1.32,1.278,1.962q.323.492.644.984l.97,1.488,2.661-4.075c.017-.029.054-.075.1-.129.011-.012.026-.031.04-.049v-.039l.1-.142a.739.739,0,0,1,.607-.32h3.641a.733.733,0,0,1,.732.732v2.444l1.663,2.794V-2.133l-.96-1.611a.735.735,0,0,1-.008-.736.734.734,0,0,1,.636-.37h.795a3.129,3.129,0,0,1,.086.554q0,.088,0,.176" transform="translate(116.7 4.87)" fill="#fff"/>
      </g>
      <g id="Group_4427" data-name="Group 4427" transform="translate(18.477 2.226)">
        <path id="Path_14826" data-name="Path 14826" d="M-86.544-4.12V10.7a.732.732,0,0,1-.732.732h-3.561a.732.732,0,0,1-.732-.732v-6.5l-2.238,3.425a.725.725,0,0,1-.611.333.735.735,0,0,1-.611-.328c-.393-.6-1.888-2.9-2.247-3.45v6.506a.732.732,0,0,1-.732.732h-3.559a.733.733,0,0,1-.733-.732V-4.138a.733.733,0,0,1,.732-.732h3.643a.727.727,0,0,1,.616.339c.419.656.856,1.32,1.278,1.962q.323.492.644.984l.97,1.488,2.661-4.075c.017-.029.054-.075.1-.129.011-.012.026-.031.04-.049v-.039l.1-.142a.739.739,0,0,1,.607-.32h3.641a.733.733,0,0,1,.732.732" transform="translate(102.3 4.87)" fill="#fff"/>
      </g>
      <g id="Group_4428" data-name="Group 4428" transform="translate(16.814 2.244)">
        <path id="Path_14827" data-name="Path 14827" d="M-6.37-4.018V10.8a.732.732,0,0,1-.732.732h-.307a2.2,2.2,0,0,1-.112-.554c-.006-.065-.009-.129-.009-.2V-4.037c0-.054,0-.106.006-.159a2.353,2.353,0,0,1,.1-.554H-7.1a.733.733,0,0,1,.732.732" transform="translate(7.53 4.75)" fill="#fff"/>
      </g>
      <g id="Group_4429" data-name="Group 4429" transform="translate(18.477 2.226)">
        <path id="Path_14828" data-name="Path 14828" d="M-95.68-32.892v3.918l-1.663,2.8v2.859a.732.732,0,0,1-.732.732h-3.561a.732.732,0,0,1-.732-.732v-6.5l-2.238,3.425a.725.725,0,0,1-.611.333.735.735,0,0,1-.611-.328c-.393-.6-1.888-2.9-2.247-3.45v6.506a.732.732,0,0,1-.732.732h-3.559a.733.733,0,0,1-.733-.732V-38.148a.733.733,0,0,1,.732-.732h3.643a.727.727,0,0,1,.616.339c.419.656.856,1.32,1.278,1.962q.323.492.644.984l.97,1.488,2.661-4.075c.017-.029.054-.075.1-.129.011-.012.026-.031.04-.049V-38.4l.1-.142a.739.739,0,0,1,.607-.32h3.641a.733.733,0,0,1,.732.732v2.444Z" transform="translate(113.1 38.88)" fill="#fff"/>
      </g>
      <g id="Group_4430" data-name="Group 4430" transform="translate(34.591 15.39)">
        <path id="Path_14829" data-name="Path 14829" d="M-7.175,0V2.4a1.715,1.715,0,0,1-.008.179,2.358,2.358,0,0,1-.108.554H-7.75a.734.734,0,0,1-.636-.37A.735.735,0,0,1-8.38,2.03Z" transform="translate(8.481)" fill="#fff"/>
      </g>
      <g id="Group_4431" data-name="Group 4431" transform="translate(34.835 2.246)">
        <path id="Path_14830" data-name="Path 14830" d="M-5.834-4.01v1.987l-.96-1.611A.735.735,0,0,1-6.8-4.37a.734.734,0,0,1,.636-.37h.217a2.28,2.28,0,0,1,.106.554,1.674,1.674,0,0,1,.008.176" transform="translate(6.897 4.74)" fill="#fff"/>
      </g>
      <g id="Group_4432" data-name="Group 4432" transform="translate(19.032 2.781)">
        <path id="Path_14831" data-name="Path 14831" d="M-80.453-1.074V13.742a.177.177,0,0,1-.177.177h-3.561a.177.177,0,0,1-.177-.177V5.969a.177.177,0,0,0-.325-.1l-2.931,4.488a.178.178,0,0,1-.3,0q-1.469-2.253-2.937-4.507a.178.178,0,0,0-.327.1v7.773a.177.177,0,0,1-.177.177h-3.559a.178.178,0,0,1-.179-.177V-1.093a.177.177,0,0,1,.177-.177h3.643a.177.177,0,0,1,.149.082c.631.99,1.284,1.967,1.926,2.951l.933,1.432.473.723a.033.033,0,0,0,.055,0l.932-1.426,2.166-3.318c.045-.069.226-.26.226-.347a.182.182,0,0,1,.149-.08h3.641a.177.177,0,0,1,.177.177" transform="translate(95.1 1.27)" fill="#fff"/>
      </g>
      <g id="Group_4433" data-name="Group 4433" transform="translate(2.217 2.226)">
        <path id="Path_14832" data-name="Path 14832" d="M-86.544-4.12V10.7a.732.732,0,0,1-.732.732h-3.561a.732.732,0,0,1-.732-.732v-6.5L-93.8,7.618a.725.725,0,0,1-.611.333.733.733,0,0,1-.611-.328c-.394-.6-1.89-2.9-2.249-3.45v6.506a.732.732,0,0,1-.732.732h-3.559a.734.734,0,0,1-.733-.732V-4.138a.733.733,0,0,1,.732-.732h3.643a.733.733,0,0,1,.618.339c.417.656.855,1.32,1.277,1.962q.323.492.645.984L-94.417-.1l2.661-4.075c.018-.029.054-.075.1-.129.011-.012.025-.031.039-.049v-.039l.1-.142a.734.734,0,0,1,.605-.32h3.641a.733.733,0,0,1,.732.732" transform="translate(102.3 4.87)" fill="#fff"/>
      </g>
      <g id="Group_4434" data-name="Group 4434" transform="translate(18.477 2.226)">
        <path id="Path_14833" data-name="Path 14833" d="M-9.416-4.12V10.7c0,.054,0,.106,0,.159a2.973,2.973,0,0,1-.085.554H-10.4a.733.733,0,0,1-.733-.732V-4.138A.733.733,0,0,1-10.4-4.87h.886a2.855,2.855,0,0,1,.091.554c0,.065.006.129.006.2" transform="translate(11.13 4.87)" fill="#fff"/>
      </g>
      <g id="Group_4435" data-name="Group 4435" transform="translate(2.217 2.226)">
        <path id="Path_14834" data-name="Path 14834" d="M-86.544-4.12V10.7a.732.732,0,0,1-.732.732h-3.561a.732.732,0,0,1-.732-.732v-6.5L-93.8,7.618a.725.725,0,0,1-.611.333.733.733,0,0,1-.611-.328c-.394-.6-1.89-2.9-2.249-3.45v6.506a.732.732,0,0,1-.732.732h-3.559a.734.734,0,0,1-.733-.732V-4.138a.733.733,0,0,1,.732-.732h3.643a.733.733,0,0,1,.618.339c.417.656.855,1.32,1.277,1.962q.323.492.645.984L-94.417-.1l2.661-4.075c.018-.029.054-.075.1-.129.011-.012.025-.031.039-.049v-.039l.1-.142a.734.734,0,0,1,.605-.32h3.641a.733.733,0,0,1,.732.732" transform="translate(102.3 4.87)" fill="#fff"/>
      </g>
      <g id="Group_4436" data-name="Group 4436" transform="translate(2.217 2.226)">
        <path id="Path_14835" data-name="Path 14835" d="M-86.544-4.12V10.7a.732.732,0,0,1-.732.732h-3.561a.732.732,0,0,1-.732-.732v-6.5L-93.8,7.618a.725.725,0,0,1-.611.333.733.733,0,0,1-.611-.328c-.394-.6-1.89-2.9-2.249-3.45v6.506a.732.732,0,0,1-.732.732h-3.559a.734.734,0,0,1-.733-.732V-4.138a.733.733,0,0,1,.732-.732h3.643a.733.733,0,0,1,.618.339c.417.656.855,1.32,1.277,1.962q.323.492.645.984L-94.417-.1l2.661-4.075c.018-.029.054-.075.1-.129.011-.012.025-.031.039-.049v-.039l.1-.142a.734.734,0,0,1,.605-.32h3.641a.733.733,0,0,1,.732.732" transform="translate(102.3 4.87)" fill="#fff"/>
      </g>
      <g id="Group_4437" data-name="Group 4437" transform="translate(18.477 2.226)">
        <path id="Path_14836" data-name="Path 14836" d="M-6.37-4.12V10.7c0,.054,0,.106-.006.159a2.352,2.352,0,0,1-.1.554H-6.8a.733.733,0,0,1-.733-.732V-4.138A.733.733,0,0,1-6.8-4.87h.307a2.216,2.216,0,0,1,.112.554c.006.065.009.129.009.2" transform="translate(7.53 4.87)" fill="#fff"/>
      </g>
      <g id="Group_4438" data-name="Group 4438" transform="translate(2.772 2.781)">
        <path id="Path_14837" data-name="Path 14837" d="M-80.453-1.074V13.742a.177.177,0,0,1-.177.177h-3.561a.177.177,0,0,1-.177-.177V5.969a.177.177,0,0,0-.325-.1l-2.931,4.488a.178.178,0,0,1-.3,0q-1.469-2.253-2.937-4.507a.178.178,0,0,0-.327.1v7.773a.177.177,0,0,1-.177.177h-3.559a.178.178,0,0,1-.179-.177V-1.093a.177.177,0,0,1,.177-.177h3.643a.177.177,0,0,1,.149.082c.631.99,1.284,1.967,1.926,2.951l.933,1.432.473.723a.033.033,0,0,0,.055,0l.932-1.426,2.166-3.318c.045-.069.226-.26.226-.347a.182.182,0,0,1,.149-.08h3.641a.177.177,0,0,1,.177.177" transform="translate(95.1 1.27)" fill="#fff"/>
      </g>
      <g id="Group_4439" data-name="Group 4439" transform="translate(32.374 2.244)">
        <path id="Path_14838" data-name="Path 14838" d="M-90.482-87.4a.732.732,0,0,1-.636.37h-3.84a.732.732,0,0,1-.628-.359l-1.976-3.331-1.988,3.333a.736.736,0,0,1-.628.357h-3.827a.734.734,0,0,1-.636-.37.735.735,0,0,1,.006-.736l1.2-2.03v-3.258l-1.663,2.8v2.859a.732.732,0,0,1-.732.732h-1.037a2.948,2.948,0,0,1-.086-.554,2.937,2.937,0,0,1,.407-1.682l.893-1.5.554-.935,1.663-2.8.519-.875-.519-.872L-105.1-99.05l-.554-.932-.647-1.086a2.943,2.943,0,0,1-.408-1.688,2.826,2.826,0,0,1,.086-.554h.792a.733.733,0,0,1,.732.732v2.444l1.663,2.794v-3.251l-.96-1.611a.735.735,0,0,1-.008-.736.734.734,0,0,1,.636-.37h3.826a.734.734,0,0,1,.628.356l1.748,2.922,1.747-2.922a.734.734,0,0,1,.628-.356h3.838a.736.736,0,0,1,.638.37.735.735,0,0,1-.009.738l-4.071,6.815,4.3,7.251a.732.732,0,0,1,.006.736" transform="translate(106.956 103.31)" fill="#fff"/>
      </g>
      <g id="Group_4440" data-name="Group 4440" transform="translate(34.591 2.246)">
        <path id="Path_14839" data-name="Path 14839" d="M-78.3-87.39a.732.732,0,0,1-.636.37h-3.84a.732.732,0,0,1-.628-.359l-1.976-3.331-1.988,3.333A.736.736,0,0,1-88-87.02H-91.83a.734.734,0,0,1-.636-.37.735.735,0,0,1,.006-.736l1.2-2.03.554-.933,2.544-4.288L-90.7-99.651l-.554-.932-.96-1.611a.735.735,0,0,1-.008-.736.734.734,0,0,1,.636-.37h3.826a.734.734,0,0,1,.628.356l1.748,2.922,1.747-2.922a.734.734,0,0,1,.628-.356h3.838a.736.736,0,0,1,.638.37.735.735,0,0,1-.009.738l-4.071,6.815,4.3,7.251a.732.732,0,0,1,.006.736" transform="translate(92.561 103.3)" fill="#fff"/>
      </g>
      <g id="Group_4441" data-name="Group 4441" transform="translate(33.172 2.244)">
        <path id="Path_14840" data-name="Path 14840" d="M-5.833-4.018v2.444l-.554-.932-.171-.286a2.383,2.383,0,0,1-.33-1.4A2.28,2.28,0,0,1-6.78-4.75h.216a.733.733,0,0,1,.732.732" transform="translate(6.895 4.75)" fill="#fff"/>
      </g>
      <g id="Group_4442" data-name="Group 4442" transform="translate(32.929 14.934)">
        <path id="Path_14841" data-name="Path 14841" d="M-7.167,0V2.859A.732.732,0,0,1-7.9,3.59h-.459a2.28,2.28,0,0,1-.108-.554,2.406,2.406,0,0,1,.327-1.4l.417-.7Z" transform="translate(8.472)" fill="#fff"/>
      </g>
      <g id="Group_4443" data-name="Group 4443" transform="translate(34.591 2.246)">
        <path id="Path_14842" data-name="Path 14842" d="M-78.3-87.39a.732.732,0,0,1-.636.37h-3.84a.732.732,0,0,1-.628-.359l-1.976-3.331-1.988,3.333A.736.736,0,0,1-88-87.02H-91.83a.734.734,0,0,1-.636-.37.735.735,0,0,1,.006-.736l1.2-2.03v-3.258l.554-.935.61-1.027L-90.7-96.4l-.554-.932v-3.251l-.96-1.611a.735.735,0,0,1-.008-.736.734.734,0,0,1,.636-.37h3.826a.734.734,0,0,1,.628.356l1.748,2.922,1.747-2.922a.734.734,0,0,1,.628-.356h3.838a.736.736,0,0,1,.638.37.735.735,0,0,1-.009.738l-4.071,6.815,4.3,7.251a.732.732,0,0,1,.006.736" transform="translate(92.561 103.3)" fill="#fff"/>
      </g>
      <g id="Group_4444" data-name="Group 4444" transform="translate(35.145 2.8)">
        <path id="Path_14843" data-name="Path 14843" d="M-48.587-.475l-2.071,3.464a.177.177,0,0,1-.3,0L-53.034-.475a.178.178,0,0,0-.152-.086h-3.826a.177.177,0,0,0-.152.268l4.173,7.01a.177.177,0,0,1,0,.181l-4.417,7.444a.177.177,0,0,0,.152.268h3.827a.177.177,0,0,0,.152-.087l2.313-3.878a.177.177,0,0,1,.3,0l2.3,3.877a.177.177,0,0,0,.152.087h3.84a.177.177,0,0,0,.152-.268L-48.631,6.9a.177.177,0,0,1,0-.181l4.187-7.009A.178.178,0,0,0-44.6-.561h-3.839a.177.177,0,0,0-.152.086" transform="translate(57.433 0.561)" fill="#fff"/>
      </g>
      <g id="Group_4445" data-name="Group 4445" transform="translate(1.274 1.284)">
        <path id="Path_14844" data-name="Path 14844" d="M-118.513,0h-3.643l3.766,0c-.04,0-.082,0-.123,0m26.8,15.655-4.017-6.768,3.784-6.336A1.677,1.677,0,0,0-91.926.866,1.679,1.679,0,0,0-93.382.018h-3.84a1.684,1.684,0,0,0-1.437.815L-99.6,2.4l-.94-1.569a1.682,1.682,0,0,0-1.437-.815H-111.5a1.675,1.675,0,0,0-1.383.73l-.263.382v.02L-115,3.989l-.182-.277c-.208-.32-.419-.639-.635-.967l-.022-.034c-.416-.633-.847-1.288-1.261-1.938A1.653,1.653,0,0,0-118.27.018h-9.494a1.679,1.679,0,0,0-1.383.73l-.263.382v.02l-1.853,2.839-.182-.277q-.314-.483-.631-.964l-.018-.029c-.419-.638-.853-1.3-1.266-1.945A1.667,1.667,0,0,0-134.773,0h-3.643a1.676,1.676,0,0,0-1.674,1.674V16.491a1.678,1.678,0,0,0,1.676,1.674h3.559a1.677,1.677,0,0,0,1.676-1.674V13.158q.256.4.521.8a1.671,1.671,0,0,0,1.4.747,1.656,1.656,0,0,0,1.4-.759l.505-.773V16.51a1.677,1.677,0,0,0,1.674,1.674h3.563c.656,0,1.311-.018,1.967-.018h3.559a1.676,1.676,0,0,0,1.674-1.674V13.158l.521.8a1.676,1.676,0,0,0,1.4.747,1.656,1.656,0,0,0,1.4-.759l.505-.773V16.51a1.677,1.677,0,0,0,1.674,1.674h9.209a1.682,1.682,0,0,0,1.439-.816l1.177-1.973,1.166,1.967a1.678,1.678,0,0,0,1.442.822h3.84a1.677,1.677,0,0,0,1.454-.846,1.678,1.678,0,0,0-.014-1.683M-106.188,4.311l.722,1.214.554.932,1.446,2.429-1.446,2.438-.554.933-.722,1.218Z" transform="translate(140.09 0)"/>
      </g>
      <g id="Group_4446" data-name="Group 4446" transform="translate(18.91 2.774)">
        <path id="Path_14845" data-name="Path 14845" d="M-80.453-1.074V13.742a.177.177,0,0,1-.177.177h-3.561a.177.177,0,0,1-.177-.177V5.969a.177.177,0,0,0-.325-.1l-2.931,4.488a.178.178,0,0,1-.3,0q-1.469-2.253-2.937-4.507a.178.178,0,0,0-.327.1v7.773a.177.177,0,0,1-.177.177h-3.559a.178.178,0,0,1-.179-.177V-1.093a.177.177,0,0,1,.177-.177h3.643a.177.177,0,0,1,.149.082c.631.99,1.284,1.967,1.926,2.951l.933,1.432.473.724a.033.033,0,0,0,.055,0l.932-1.426,2.166-3.318c.045-.069.226-.26.226-.347a.182.182,0,0,1,.149-.08h3.641a.177.177,0,0,1,.177.177" transform="translate(95.1 1.27)" fill="#ff0"/>
      </g>
      <g id="Group_4447" data-name="Group 4447" transform="translate(2.651 2.774)">
        <path id="Path_14846" data-name="Path 14846" d="M-80.453-1.074V13.742a.177.177,0,0,1-.177.177h-3.561a.177.177,0,0,1-.177-.177V5.969a.177.177,0,0,0-.325-.1l-2.931,4.488a.178.178,0,0,1-.3,0q-1.469-2.253-2.937-4.507a.178.178,0,0,0-.327.1v7.773a.177.177,0,0,1-.177.177h-3.559a.178.178,0,0,1-.179-.177V-1.093a.177.177,0,0,1,.177-.177h3.643a.177.177,0,0,1,.149.082c.631.99,1.284,1.967,1.926,2.951l.933,1.432.473.724a.033.033,0,0,0,.055,0l.932-1.426,2.166-3.318c.045-.069.226-.26.226-.347a.182.182,0,0,1,.149-.08h3.641a.177.177,0,0,1,.177.177" transform="translate(95.1 1.27)" fill="#ff0"/>
      </g>
      <g id="Group_4448" data-name="Group 4448" transform="translate(35.023 2.793)">
        <path id="Path_14847" data-name="Path 14847" d="M-48.588-.475l-2.071,3.464a.177.177,0,0,1-.3,0L-53.034-.475a.178.178,0,0,0-.152-.086h-3.826a.177.177,0,0,0-.152.268l4.173,7.01a.177.177,0,0,1,0,.181l-4.417,7.444a.177.177,0,0,0,.153.268h3.827a.177.177,0,0,0,.152-.087l2.313-3.878a.177.177,0,0,1,.3,0l2.3,3.877a.177.177,0,0,0,.152.087h3.84a.177.177,0,0,0,.152-.268L-48.631,6.9a.177.177,0,0,1,0-.181l4.187-7.009A.178.178,0,0,0-44.6-.561h-3.839a.177.177,0,0,0-.152.086" transform="translate(57.434 0.561)" fill="#ff0"/>
      </g>
    </g>
  </g>
</svg>
