<svg xmlns="http://www.w3.org/2000/svg" width="98.18" height="30.077" viewBox="0 0 98.18 30.077">
  <g id="visa-svgrepo-com" transform="translate(0 0)" opacity="0.504">
    <path id="Path_16015" data-name="Path 16015" d="M142.543,178.7l4.966-29.138h7.942L150.482,178.7Zm36.632-28.51a20.511,20.511,0,0,0-7.118-1.224c-7.848,0-13.376,3.952-13.423,9.616-.045,4.187,3.946,6.523,6.959,7.916,3.092,1.428,4.131,2.339,4.116,3.614-.02,1.953-2.469,2.845-4.751,2.845a16.65,16.65,0,0,1-7.476-1.53l-1.023-.463-1.115,6.523a25.146,25.146,0,0,0,8.847,1.554c8.349,0,13.768-3.907,13.83-9.955.03-3.315-2.086-5.837-6.668-7.917-2.776-1.348-4.476-2.247-4.458-3.612,0-1.211,1.439-2.506,4.548-2.506a14.657,14.657,0,0,1,5.945,1.116l.712.336,1.076-6.315m20.438-.629h-6.137c-1.9,0-3.324.519-4.159,2.416l-11.8,26.7h8.34s1.363-3.591,1.672-4.379c.912,0,9.013.012,10.172.012.238,1.02.966,4.366.966,4.366h7.37l-6.428-29.12Zm-9.737,18.815c.657-1.679,3.164-8.145,3.164-8.145-.047.078.652-1.687,1.053-2.781l.537,2.512s1.521,6.955,1.839,8.414ZM135.8,149.563l-7.776,19.871L127.2,165.4c-1.448-4.655-5.958-9.7-11-12.223l7.11,25.482,8.4-.01,12.5-29.083H135.8" transform="translate(-107.862 -148.968)" fill="#fff" opacity="0.5"/>
    <path id="Path_16016" data-name="Path 16016" d="M73.106,152.957H60.3l-.1.606c9.963,2.412,16.556,8.241,19.293,15.243l-2.785-13.39c-.481-1.845-1.875-2.4-3.6-2.46" transform="translate(-60.198 -152.362)" fill="#ebebeb"/>
  </g>
</svg>
